# xmcd
#
# Track frame offsets:
#	150
#	16475
#	33967
#	50320
#	64110
#	80177
#	94837
#	110385
#	125875
#	144930
#	161770
#	175682
#	192372
#	210197
#	229175
#	248005
#	269715
#	285110
#	303055
#
# Disc length: 4275 seconds
#
# Revision: 0
# Processed by: cddbd v1.5.2PL0 Copyright (c) Steve Scherf et al.
# Submitted via: EZCDAudioConverter 2.1.1.1
#
DISCID=0110b113
DTITLE=지누 3
DYEAR=2000
DGENRE=
TTITLE0=엄정화 - 몰라
TTITLE1=조성모 - 투해븐
TTITLE2=백지영 - 부담
TTITLE3=스페이스에이 - 성숙
TTITLE4=유채영 - 인모션
TTITLE5=두리안 - 아임스틸러빙유(첨밀밀)
TTITLE6=젝스키스 - 컴백
TTITLE7=핑클 - 영원한 사랑
TTITLE8=Y2K - 헤어진 후에
TTITLE9=베이비복스 - 킬러
TTITLE10=백지영 - 선택+부담
TTITLE11=룰라 - 무빙
TTITLE12=엄정화 - 페스티벌
TTITLE13=조관우 - 내마음 당신곁으로
TTITLE14=젝스키스 - 예감
TTITLE15=송강호 - 헝그리
TTITLE16=디제이처리 - 돌아와요부산항에
TTITLE17=최영희 - 피스엔하모니
TTITLE18=디제이덕 - 겨울이야기
EXTD=
EXTT0=
EXTT1=
EXTT2=
EXTT3=
EXTT4=
EXTT5=
EXTT6=
EXTT7=
EXTT8=
EXTT9=
EXTT10=
EXTT11=
EXTT12=
EXTT13=
EXTT14=
EXTT15=
EXTT16=
EXTT17=
EXTT18=
PLAYORDER=
